<?xml version="1.0" standalone="no"?>
<!DOCTYPE svg PUBLIC "-//W3C//DTD SVG 20010904//EN"
 "http://www.w3.org/TR/2001/REC-SVG-20010904/DTD/svg10.dtd">
<svg version="1.0" xmlns="http://www.w3.org/2000/svg"
 width="170.000000pt" height="170.000000pt" viewBox="0 0 170.000000 170.000000"
 preserveAspectRatio="xMidYMid meet">

<g transform="translate(0.000000,170.000000) scale(0.100000,-0.100000)"
fill="#3bb5e9" stroke="#fff">
<path d="M674 1666 c-183 -42 -324 -123 -450 -261 -81 -87 -159 -227 -189
-340 -25 -92 -31 -293 -11 -388 65 -316 302 -563 624 -649 108 -28 296 -28
404 0 319 86 558 333 625 646 19 89 13 304 -11 391 -24 87 -97 230 -157 305
-114 142 -280 246 -474 297 -50 13 -302 12 -361 -1z m-69 -450 c39 -8 79 -17
90 -19 80 -18 126 -18 163 0 79 41 95 39 119 -18 10 -24 8 -31 -20 -62 -18
-19 -48 -74 -67 -123 -19 -48 -36 -91 -38 -95 -2 -4 12 -9 30 -11 28 -3 33 -6
30 -28 -5 -46 -29 -70 -70 -70 l-37 0 -29 -78 c-55 -146 -114 -225 -200 -269
-114 -59 -257 -17 -313 91 -22 43 -20 138 5 178 44 71 111 112 173 106 l34 -3
0 -60 0 -59 -36 -9 c-98 -23 -62 -151 37 -132 50 9 94 57 139 149 41 86 42 94
13 89 -42 -7 -52 9 -31 53 17 35 22 39 56 39 40 0 37 -5 88 126 l18 46 -118
23 c-143 27 -184 23 -200 -20 -9 -27 -7 -32 13 -45 18 -12 29 -13 56 -3 31 10
35 9 57 -18 44 -53 44 -58 7 -84 -45 -30 -128 -39 -170 -17 -119 62 -130 220
-22 296 59 41 117 48 223 27z m699 -247 c13 -7 30 -25 37 -42 14 -33 18 -18
-66 -246 -17 -48 -23 -77 -17 -83 14 -14 96 63 129 119 28 48 41 52 68 23 18
-20 18 -22 -2 -56 -36 -63 -120 -150 -165 -171 -64 -29 -110 -29 -146 2 -53
44 -51 109 8 252 17 39 30 74 30 77 0 3 -11 6 -25 6 -44 0 -81 -48 -129 -165
-24 -60 -52 -127 -60 -148 l-17 -38 -72 3 c-57 2 -72 6 -70 18 2 21 169 430
180 441 6 6 31 1 64 -11 l55 -21 49 25 c51 28 108 33 149 15z"/>
</g>
</svg>
