<?xml version="1.0" standalone="no"?>
<!DOCTYPE svg PUBLIC "-//W3C//DTD SVG 20010904//EN"
 "http://www.w3.org/TR/2001/REC-SVG-20010904/DTD/svg10.dtd">
<svg version="1.0" xmlns="http://www.w3.org/2000/svg"
 width="512.000000pt" height="512.000000pt" viewBox="0 0 512.000000 512.000000"
 preserveAspectRatio="xMidYMid meet">
<metadata>
Created by potrace 1.16, written by Peter Selinger 2001-2019
</metadata>
<g transform="translate(0.000000,512.000000) scale(0.100000,-0.100000)"
fill="#000000" stroke="none">
<path d="M0 4901 l0 -220 53 -20 c28 -11 110 -45 180 -76 71 -30 133 -53 138
-49 5 3 9 1 9 -4 0 -16 33 -24 42 -10 6 10 8 9 8 -2 0 -18 109 -70 145 -70 13
0 28 -6 32 -13 4 -7 58 -33 118 -58 61 -26 158 -67 217 -92 98 -42 106 -44
100 -24 -10 29 -7 76 4 87 17 17 119 17 109 0 -3 -5 -2 -10 4 -10 5 0 14 -15
21 -34 12 -39 -1 -86 -25 -86 -28 0 -15 -18 25 -34 50 -20 49 -20 43 3 -3 11
5 30 18 45 18 21 31 26 69 26 36 0 52 5 69 24 13 14 21 30 19 38 -7 20 37 60
70 63 36 2 110 58 123 92 5 13 17 26 26 29 36 11 65 32 209 154 l148 125 -48
8 c-53 9 -65 1 -66 -38 0 -26 -44 -47 -75 -35 -12 5 -25 20 -29 34 -3 14 -10
26 -15 26 -17 0 -115 -49 -99 -49 21 -1 58 -48 58 -74 0 -11 -5 -37 -12 -58
-12 -41 -25 -46 -76 -33 -19 5 -20 9 -10 22 9 11 9 13 1 9 -26 -16 -48 71 -26
102 17 26 16 26 -42 1 l-47 -20 73 81 c40 44 66 79 58 77 -8 -1 -15 1 -16 5
-1 4 -12 17 -25 27 -17 14 -19 19 -8 20 13 0 13 2 0 10 -12 7 -12 12 4 29 23
26 37 27 30 4 -5 -17 -5 -17 9 0 20 24 30 21 25 -8 -4 -17 -1 -25 9 -25 10 0
13 6 9 16 -3 8 -2 12 4 9 6 -3 10 -16 10 -28 0 -18 9 -13 56 36 l56 58 232
-42 c127 -23 243 -44 259 -47 15 -2 27 -8 27 -12 0 -5 -24 -29 -54 -55 -40
-34 -53 -52 -52 -70 0 -14 5 -25 9 -25 5 0 5 -5 2 -10 -9 -15 -27 -1 -21 16 7
17 -6 18 -23 2 -11 -11 -12 -10 -6 2 10 18 -96 -78 -108 -98 -5 -7 -6 -20 -3
-29 5 -12 1 -14 -19 -9 -14 4 -25 2 -25 -4 0 -5 -6 -10 -12 -10 -15 0 -96 -75
-118 -108 -8 -12 -24 -25 -35 -28 -11 -4 -46 -29 -78 -57 -42 -36 -57 -56 -54
-69 5 -18 -8 -26 -15 -8 -1 5 -28 -12 -58 -37 -53 -44 -73 -73 -50 -73 12 0
144 102 171 132 9 10 20 18 23 18 4 0 51 35 104 78 174 141 393 316 475 380
45 34 93 74 107 87 25 24 50 33 50 18 0 -5 9 -23 20 -41 22 -35 29 -35 78 8
l24 20 -84 99 -83 100 -480 0 -480 0 -24 -37 c-13 -20 -32 -49 -43 -64 -10
-15 -18 -31 -18 -37 0 -5 -4 -11 -8 -13 -13 -5 -152 -220 -152 -235 0 -7 5
-13 11 -13 12 0 59 -50 59 -62 0 -5 20 -8 44 -8 49 0 96 -15 108 -33 4 -6 24
-12 45 -12 26 0 39 -5 41 -16 2 -12 -4 -15 -30 -11 -30 5 -32 3 -19 -12 16
-19 9 -70 -13 -91 -54 -55 -130 8 -113 94 5 24 2 30 -16 35 -39 10 -55 6 -62
-14 -4 -13 -15 -20 -32 -20 -29 0 -83 35 -83 55 0 10 -19 16 -61 21 -42 5 -62
12 -67 23 -3 9 -10 19 -16 23 -7 5 -4 8 7 8 9 0 17 5 17 10 0 6 -11 8 -24 6
-17 -3 -29 3 -44 24 -18 24 -19 30 -7 47 15 22 9 29 -218 241 l-99 92 -315 0
c-292 0 -315 -1 -309 -17 6 -16 6 -16 -12 0 -10 9 -26 17 -35 17 -15 0 -17
-21 -17 -219z m871 -180 c20 -12 42 -18 58 -15 19 4 32 -1 46 -17 l20 -22 -27
7 c-32 7 -48 -10 -17 -19 l21 -7 -22 -20 c-12 -11 -19 -25 -17 -32 3 -6 -2
-17 -9 -24 -13 -12 -15 -11 -14 4 1 3 -9 13 -22 24 -21 17 -24 17 -29 2 -6
-15 -8 -15 -14 2 -5 11 -3 21 4 26 9 5 8 9 -4 14 -9 3 -14 10 -10 15 3 5 1 12
-5 16 -6 4 -8 11 -5 16 4 5 -8 9 -24 9 -34 0 -40 14 -13 29 26 15 48 13 83 -8z
m274 -166 c28 -38 19 -86 -20 -103 -36 -17 -40 -16 -74 19 -37 37 -41 82 -10
115 19 21 25 22 52 11 16 -7 40 -26 52 -42z m173 -78 c7 -5 20 -25 29 -44 15
-32 15 -37 0 -62 -19 -32 -61 -49 -85 -35 -9 6 -27 25 -39 43 -18 27 -20 37
-11 62 18 53 65 69 106 36z m-364 -29 c-3 -4 2 -5 10 -2 11 4 16 0 16 -15 0
-12 5 -21 10 -21 6 0 10 -9 10 -20 0 -11 -4 -20 -10 -20 -5 0 -10 -7 -10 -15
0 -17 -36 -34 -60 -29 -8 1 -21 3 -27 3 -7 1 -13 10 -13 21 0 11 -6 20 -14 20
-19 0 -26 23 -17 57 5 17 14 27 24 27 10 -1 17 6 17 16 0 16 2 17 34 2 19 -9
33 -19 30 -24z"/>
<path d="M3180 5101 c28 -15 70 -20 197 -25 155 -7 162 -7 172 13 6 11 11 22
11 25 0 3 -93 6 -207 6 -208 -1 -208 -1 -173 -19z"/>
<path d="M3817 5083 c-27 -37 -23 -63 9 -63 14 0 42 -15 146 -79 37 -22 71
-41 76 -41 9 0 212 206 212 215 0 3 -94 5 -208 5 l-209 0 -26 -37z"/>
<path d="M4274 5081 c-10 -20 -28 -52 -39 -71 -16 -27 -19 -40 -11 -57 15 -32
24 -28 32 13 5 28 16 42 49 63 23 14 40 31 38 38 -5 14 14 27 21 15 3 -5 -6
-49 -19 -98 -29 -106 -30 -110 -9 -118 20 -8 49 13 36 26 -6 6 -4 28 5 56 8
26 19 69 24 95 9 40 16 51 43 63 29 13 26 14 -60 13 l-91 -2 -19 -36z"/>
<path d="M4486 5048 c-10 -40 -20 -78 -23 -83 -2 -6 19 -20 46 -32 28 -12 49
-16 48 -10 -1 6 7 13 17 15 15 3 18 0 14 -16 -4 -15 1 -23 21 -32 l26 -12 -40
-24 c-27 -16 -49 -23 -67 -20 -23 5 -27 1 -34 -26 -3 -18 -12 -37 -18 -43 -40
-40 -112 -47 -142 -14 -24 27 -92 62 -104 54 -21 -13 -7 -28 50 -52 l60 -26
-35 -33 c-19 -18 -35 -39 -35 -46 0 -33 125 -128 169 -128 6 0 8 19 5 48 -5
44 -3 49 29 80 24 24 33 40 29 54 -4 15 -1 19 15 16 14 -2 46 23 108 85 53 53
91 83 95 77 10 -16 33 -256 31 -313 -1 -27 2 -54 7 -60 5 -7 13 -39 17 -71 6
-56 6 -59 -14 -53 -12 3 -24 1 -27 -5 -4 -7 -9 -6 -14 2 -5 8 -17 1 -39 -20
-43 -44 -44 -97 0 -134 35 -29 53 -32 90 -12 l26 13 7 -60 c12 -115 14 -110
-49 -102 -55 6 -63 2 -46 -24 6 -10 22 -12 55 -9 36 4 46 2 50 -11 8 -24 28
-202 24 -206 -2 -2 -10 1 -18 6 -11 8 -12 12 -2 16 20 8 14 23 -9 23 -15 0
-19 5 -15 15 3 8 1 15 -3 15 -5 0 -12 -7 -15 -16 -8 -22 -8 -26 4 -19 6 3 13
-1 17 -10 3 -10 0 -21 -8 -25 -11 -7 -10 -10 4 -16 14 -5 15 -9 5 -21 -9 -11
-9 -16 3 -24 21 -13 29 -11 23 6 -4 9 0 15 9 15 13 0 23 -60 33 -210 6 -99 26
-197 44 -222 54 -73 72 -182 50 -298 -4 -25 -11 -63 -15 -85 -4 -22 -14 -56
-23 -75 -19 -43 -29 -130 -14 -130 5 0 12 9 15 20 6 25 39 27 35 3 -2 -12 3
-18 17 -18 11 0 20 7 20 15 0 8 3 17 6 20 10 8 18 80 10 80 -5 0 -12 72 -16
161 -7 156 -7 161 14 175 11 8 21 26 21 39 0 22 -3 24 -25 15 -23 -9 -25 -8
-25 23 0 31 -23 442 -36 626 -4 64 -3 91 4 87 6 -4 10 1 10 11 0 10 2 38 6 61
5 30 4 42 -3 37 -7 -3 -8 0 -5 9 4 11 0 16 -10 16 -13 0 -16 11 -16 50 0 52
15 65 39 36 10 -12 16 -12 41 1 17 8 30 19 30 25 0 6 3 8 7 5 13 -14 32 30 33
76 0 40 -5 52 -27 73 -22 20 -34 24 -58 20 -16 -4 -36 -7 -42 -8 -7 -1 -13 -5
-13 -10 0 -4 -4 -8 -8 -8 -13 0 -31 89 -20 92 18 6 21 93 5 119 -11 16 -18 59
-22 129 -3 58 -8 126 -11 153 -3 28 -1 47 5 47 6 0 40 -13 75 -30 90 -41 137
-60 147 -60 5 0 9 61 9 135 l0 135 -25 0 c-14 0 -25 -5 -25 -10 0 -6 -11 -15
-25 -20 -14 -5 -25 -13 -25 -18 0 -16 -63 -5 -122 21 -40 18 -59 22 -62 14 -5
-9 -7 -9 -12 1 -3 6 -19 12 -35 12 -44 0 -28 -14 43 -40 35 -12 71 -28 81 -35
16 -12 14 -15 -29 -39 l-47 -26 -76 30 c-107 43 -106 42 -93 79 l11 31 -87 0
-88 0 -18 -72z"/>
<path d="M2986 4973 c-89 -16 -196 -69 -277 -138 -28 -24 -73 -53 -100 -66
-27 -13 -49 -30 -49 -37 0 -13 -16 -21 -115 -57 -54 -20 -132 -90 -159 -144
-9 -17 -23 -31 -30 -31 -28 0 -256 -273 -256 -306 0 -5 -12 -20 -26 -35 -15
-15 -31 -47 -37 -71 -11 -47 -21 -424 -12 -473 3 -20 17 -38 40 -53 31 -19 34
-26 28 -50 -15 -57 1 -212 30 -287 9 -22 18 -56 20 -75 8 -57 28 -141 43 -176
8 -18 16 -49 19 -67 l6 -34 -41 11 c-48 12 -93 -6 -98 -40 -4 -25 69 -204 102
-253 14 -20 32 -63 42 -96 19 -66 87 -209 114 -240 10 -11 21 -31 25 -45 6
-22 41 -98 64 -140 4 -8 25 -51 46 -95 21 -44 50 -98 65 -120 14 -22 40 -65
57 -95 38 -69 134 -204 175 -247 l31 -32 -20 -32 c-31 -55 -188 -129 -403
-193 -54 -16 -383 -149 -495 -201 -44 -20 -120 -56 -170 -79 -49 -24 -117 -54
-150 -67 -49 -20 -80 -44 -174 -138 -112 -111 -151 -165 -246 -336 -18 -33
-40 -87 -48 -120 -8 -33 -29 -98 -45 -145 -17 -47 -34 -104 -38 -127 l-7 -43
740 0 740 0 21 88 c11 48 23 122 27 165 9 100 17 128 57 190 32 51 40 70 98
237 53 156 99 381 100 495 0 83 23 261 35 273 3 4 11 0 16 -8 18 -27 -9 -370
-37 -466 -8 -28 -21 -87 -28 -130 -16 -93 -60 -276 -121 -499 -25 -88 -49
-187 -54 -220 -5 -33 -13 -75 -17 -92 l-6 -33 1326 0 1326 0 0 733 0 732 -83
32 c-124 47 -253 100 -337 138 -41 18 -84 35 -94 37 -20 3 -124 159 -125 187
-1 8 -8 23 -17 33 -15 16 -15 25 -4 80 7 35 22 79 32 98 10 19 18 55 18 81 0
54 18 207 28 229 6 15 9 27 11 46 0 6 23 25 49 41 94 58 150 162 187 349 15
71 30 133 34 139 14 17 41 172 41 231 0 89 -6 95 -103 90 -45 -2 -87 -2 -92 1
-11 4 -10 121 1 223 18 167 6 301 -34 377 -7 12 -12 32 -12 45 0 13 -6 32 -13
43 -8 11 -19 35 -25 53 -6 18 -32 59 -58 92 l-47 59 2 106 c2 80 -1 105 -11
107 -7 0 -17 2 -23 2 -5 1 -21 9 -35 18 -35 24 -129 64 -168 73 -25 5 -32 11
-27 23 4 10 -3 23 -17 34 -19 15 -20 20 -9 27 11 7 7 10 -15 13 -23 2 -29 7
-27 26 2 12 -2 22 -7 22 -6 0 -10 14 -10 30 0 17 -9 39 -20 50 -11 11 -20 27
-20 36 0 12 -6 15 -23 10 -17 -4 -32 4 -60 29 -20 19 -37 31 -37 27 0 -3 -5
-1 -12 6 -7 7 -18 12 -26 12 -8 0 -40 20 -73 45 -32 24 -85 56 -117 69 -73 31
-193 44 -228 25 -22 -11 -35 -10 -96 5 -51 13 -73 15 -81 7 -16 -16 -216 -15
-223 2 -6 17 -34 17 -128 0z m759 -658 c50 -1 107 -6 128 -10 25 -5 37 -4 37
4 0 19 72 12 133 -13 67 -28 169 -95 161 -107 -2 -5 15 -50 40 -101 25 -51 56
-138 69 -193 17 -68 37 -120 63 -164 57 -93 71 -121 87 -171 53 -168 64 -242
72 -489 7 -178 10 -205 25 -182 6 11 12 5 24 -24 20 -47 20 -65 0 -93 -19 -27
-34 -29 -27 -3 3 11 0 28 -5 38 -10 16 -11 16 -21 -9 -5 -15 -13 -96 -16 -180
-7 -209 -13 -275 -35 -403 -40 -227 -104 -409 -188 -531 -58 -86 -363 -383
-447 -437 -170 -109 -255 -132 -440 -122 -290 16 -338 40 -596 295 -202 200
-279 305 -399 547 -100 204 -203 535 -255 820 -28 156 -46 423 -33 492 4 24 7
76 7 115 -2 60 3 81 29 139 53 114 155 278 191 306 57 44 192 128 271 169 41
21 95 51 119 66 25 16 71 35 103 42 33 8 72 21 88 29 16 8 36 15 44 15 9 0 40
11 70 25 30 14 61 25 68 25 7 0 33 10 58 21 26 12 66 21 95 21 54 0 74 8 119
45 20 17 38 23 55 20 14 -3 46 -1 71 3 25 5 68 6 95 3 28 -3 91 -7 140 -8z
m1066 -1082 c19 -23 15 -153 -5 -195 -9 -17 -19 -50 -22 -72 -17 -124 -49
-249 -81 -318 -39 -85 -74 -124 -121 -137 l-32 -10 0 85 c0 75 10 106 23 72 3
-8 9 -2 15 13 8 19 23 31 54 40 35 12 44 19 46 42 4 29 -15 38 -25 12 -6 -18
-63 -50 -63 -36 0 5 9 26 21 46 25 41 20 92 -11 120 -19 17 -19 19 -3 46 21
36 11 47 -22 25 -25 -16 -25 -16 -27 16 -3 74 5 133 20 144 8 6 16 20 17 30 2
35 38 83 64 87 71 11 139 7 152 -10z m-291 -1510 c28 -57 50 -163 50 -248 -1
-95 -23 -303 -55 -520 -22 -144 -26 -200 -21 -280 6 -109 -7 -176 -44 -227
-11 -15 -20 -31 -20 -36 0 -5 -7 -15 -15 -22 -13 -11 -15 -6 -16 31 -5 189 13
554 32 653 37 191 40 399 9 625 -6 46 -8 96 -5 110 l7 26 28 -35 c16 -19 38
-54 50 -77z m-110 -129 c13 -158 9 -334 -9 -431 -21 -106 -51 -411 -51 -510 0
-57 -4 -105 -10 -108 -5 -3 -42 -45 -82 -93 -208 -252 -284 -311 -487 -378
-90 -29 -133 -30 -214 -3 -194 65 -274 129 -444 354 -76 100 -119 194 -198
430 -85 253 -145 515 -118 515 5 0 26 -21 47 -46 52 -62 183 -158 252 -183
177 -67 407 -84 544 -42 91 28 115 40 204 100 129 85 446 395 506 493 19 31
38 57 41 58 3 0 12 -70 19 -156z m-1795 -306 c-3 -13 -10 -32 -15 -43 -25 -60
-51 -138 -66 -195 -8 -36 -27 -99 -40 -140 -14 -41 -34 -133 -44 -205 -11 -71
-22 -146 -26 -165 l-7 -34 -14 39 c-20 59 -16 296 8 408 10 48 31 108 46 135
49 86 148 222 160 222 3 0 2 -10 -2 -22z"/>
<path d="M3830 3464 c-163 -35 -330 -108 -415 -182 -34 -29 -32 -47 3 -25 l27
18 -17 -26 c-16 -25 -16 -28 1 -43 17 -16 29 -13 187 38 232 76 293 93 409
112 117 20 138 33 109 65 -50 57 -165 73 -304 43z"/>
<path d="M3857 3249 c-95 -14 -199 -49 -245 -83 -48 -34 -96 -105 -90 -133 3
-13 10 -7 26 23 38 74 88 106 222 143 102 28 195 36 260 22 61 -13 74 -9 33
12 -38 20 -135 27 -206 16z"/>
<path d="M2385 3230 c-62 -24 -146 -92 -162 -130 -16 -38 -5 -44 49 -26 120
40 275 46 484 19 128 -16 132 -16 152 3 29 28 26 72 -7 88 -115 59 -416 86
-516 46z"/>
<path d="M3757 3170 c-86 -29 -202 -117 -238 -183 -14 -25 14 -33 68 -19 24 7
72 12 108 12 127 0 232 37 311 110 30 28 48 37 63 33 39 -10 22 21 -22 41 -63
28 -214 31 -290 6z"/>
<path d="M2590 2994 c-79 -16 -181 -69 -201 -106 -13 -24 -5 -35 15 -19 12 10
23 7 55 -15 65 -43 231 -50 325 -14 15 5 51 10 81 10 30 0 57 5 61 12 10 15
-56 71 -122 104 -51 25 -157 39 -214 28z"/>
<path d="M3485 2318 c-16 -6 -51 -30 -76 -55 -62 -60 -109 -71 -187 -42 -134
48 -187 58 -223 38 -31 -16 -12 -29 44 -29 33 0 86 -11 139 -30 116 -41 166
-35 223 25 47 50 92 75 135 75 16 0 30 5 30 10 0 6 -6 10 -14 10 -8 0 -20 2
-28 4 -7 3 -26 0 -43 -6z"/>
<path d="M3410 1951 c-18 -7 -2 -9 60 -11 103 -2 179 -13 163 -23 -12 -7 -140
-21 -363 -37 -69 -5 -152 -14 -185 -20 -78 -13 -80 -13 -65 5 10 12 9 15 -4
15 -10 0 -26 -5 -37 -10 -11 -6 -41 -12 -67 -14 -26 -2 -52 -4 -59 -5 -7 0
-10 -7 -7 -15 7 -18 166 -30 214 -16 19 6 100 15 180 20 80 5 186 19 235 30
50 11 116 20 147 20 31 0 91 5 133 11 99 15 100 34 3 43 -130 12 -322 15 -348
7z"/>
<path d="M4580 4624 c0 -5 -13 -18 -30 -27 -19 -11 -34 -31 -41 -56 -10 -34
-9 -42 12 -74 26 -40 65 -53 103 -35 34 15 56 63 46 98 -12 41 -29 70 -42 70
-6 0 -20 7 -30 17 -10 9 -18 12 -18 7z"/>
<path d="M2 4343 l3 -67 65 -26 c36 -15 85 -36 110 -47 25 -12 97 -42 160 -68
63 -26 144 -61 180 -77 36 -17 87 -39 115 -50 27 -11 54 -23 60 -27 5 -5 23
-11 39 -15 21 -5 26 -10 18 -18 -9 -9 -5 -20 14 -46 21 -27 24 -36 14 -45 -10
-10 -12 -8 -6 8 6 20 6 20 -9 1 -8 -11 -15 -24 -15 -29 0 -15 -29 14 -61 60
-30 43 -31 43 -89 43 -35 0 -60 -4 -60 -10 0 -6 25 -37 56 -68 30 -31 62 -64
69 -72 13 -14 8 -23 -40 -74 -34 -35 -61 -56 -69 -53 -19 7 -38 -17 -34 -41 2
-11 -6 -29 -16 -41 -19 -21 -19 -21 3 -21 14 0 21 -5 19 -12 -8 -23 -42 -15
-48 11 -3 14 -11 26 -18 29 -17 5 -27 -27 -13 -41 8 -8 4 -18 -17 -40 -18 -20
-23 -31 -14 -34 17 -6 15 -43 -2 -43 -8 0 -18 5 -21 11 -4 6 -32 -14 -68 -49
-47 -44 -74 -61 -110 -70 -26 -7 -47 -17 -47 -22 0 -13 17 -12 62 4 l36 13
-21 -33 c-12 -19 -29 -34 -37 -34 -9 0 -43 -33 -77 -73 -34 -40 -78 -88 -98
-107 l-35 -34 0 -405 0 -404 60 84 c60 84 116 154 106 133 -3 -7 4 -14 16 -17
22 -6 42 12 52 46 3 14 0 17 -12 12 -13 -5 -14 -3 -5 6 6 6 9 18 6 26 -5 12
21 57 81 143 10 13 9 13 -7 1 -15 -12 -17 -11 -14 6 3 24 28 50 56 61 11 4 53
55 94 113 75 107 102 164 72 153 -10 -4 -15 0 -15 10 0 10 9 16 25 16 17 0 23
4 19 15 -10 25 7 40 23 19 12 -16 15 -17 23 -4 5 8 10 30 10 48 0 27 4 32 25
32 14 0 29 8 35 20 15 29 25 25 45 -19 13 -30 24 -41 44 -43 20 -2 25 -8 23
-23 -2 -11 -8 -23 -14 -26 -14 -9 21 -75 49 -90 18 -10 23 -19 20 -38 -3 -16
14 -64 50 -140 30 -64 73 -154 95 -201 22 -47 103 -217 180 -378 78 -162 141
-302 142 -313 1 -11 6 -23 13 -27 14 -9 58 -103 55 -116 -2 -4 3 -13 11 -20 7
-6 31 -50 53 -98 37 -83 41 -87 71 -88 26 0 39 -10 77 -57 25 -32 46 -63 46
-68 0 -6 -14 -23 -30 -38 -33 -31 -34 -35 -20 -57 6 -9 12 -11 18 -5 4 6 25
32 46 58 l38 48 -23 25 c-12 13 -31 24 -41 24 -15 0 -18 5 -13 19 3 11 1 22
-5 26 -22 14 -8 25 33 25 40 0 47 -4 90 -54 26 -30 47 -58 47 -61 0 -4 -23
-34 -51 -66 -46 -53 -55 -59 -89 -59 l-39 0 32 -67 c53 -111 48 -107 91 -92
21 8 35 19 33 27 -1 8 4 17 12 20 10 3 12 0 8 -11 -4 -12 6 -10 46 9 29 14 64
30 80 37 15 6 27 17 27 25 0 7 5 10 11 7 14 -9 42 2 238 95 35 16 77 30 92 30
15 0 31 5 35 11 3 6 16 8 28 6 32 -7 85 15 99 42 16 32 42 42 35 13 -6 -21 -5
-21 41 3 25 13 55 30 66 39 19 15 18 17 -38 70 -35 34 -67 76 -85 113 -36 76
-58 107 -71 98 -21 -12 -12 -42 11 -41 18 1 22 -4 20 -19 -5 -27 -5 -27 -42
-9 -23 12 -38 14 -49 7 -29 -18 -39 -5 -31 38 7 39 0 56 -20 44 -6 -4 -10 -14
-9 -23 1 -10 -1 -25 -6 -35 -5 -12 -2 -22 10 -31 10 -7 19 -26 20 -42 1 -16 3
-37 3 -46 2 -21 28 -24 35 -5 4 9 6 9 6 -1 1 -13 -49 -79 -128 -168 l-37 -43
-77 152 c-73 144 -76 152 -57 161 21 9 26 41 11 65 -10 15 -15 8 -25 -34 l-7
-29 -23 44 c-13 25 -33 61 -44 80 -27 43 -27 46 -1 53 28 8 18 32 -12 30 -21
-1 -32 15 -94 133 -38 74 -74 134 -79 134 -5 0 -40 -10 -77 -22 l-67 -21 45
-96 c25 -53 47 -105 49 -116 2 -11 2 -14 -2 -7 -8 17 -24 15 -24 -3 0 -8 4
-15 9 -15 5 0 12 -11 15 -25 4 -15 14 -25 24 -25 25 0 80 -129 60 -142 -9 -6
-8 -8 6 -6 15 2 26 -14 55 -80 33 -77 38 -83 61 -78 62 12 65 12 68 -14 2 -13
22 -47 43 -74 44 -55 45 -58 22 -77 -15 -13 -15 -12 -4 11 8 17 1 13 -23 -15
-20 -22 -36 -45 -36 -50 0 -6 -13 -18 -29 -28 -37 -22 -81 -5 -81 33 0 19 -2
22 -12 12 -7 -7 -13 -18 -13 -25 0 -14 -86 -30 -98 -18 -5 5 12 33 37 64 l45
56 -37 34 c-20 18 -43 44 -50 55 -11 20 -10 22 13 22 14 0 25 2 25 5 0 3 -23
51 -51 106 -27 56 -45 98 -39 94 8 -5 10 6 6 37 -3 23 -5 44 -5 46 -1 1 -8 2
-16 2 -17 0 -20 -23 -5 -51 6 -10 8 -19 5 -19 -9 0 -74 137 -68 144 4 3 -3 15
-15 26 -12 12 -22 30 -22 40 0 11 -4 20 -8 20 -5 0 -22 27 -38 60 -16 33 -32
60 -35 60 -4 0 -26 -7 -49 -15 -60 -21 -69 -18 -35 12 17 15 31 21 33 14 5
-14 32 -15 32 -1 0 6 -6 10 -12 10 -8 0 -9 3 -3 8 10 7 35 47 35 56 0 2 -8 2
-18 -1 -14 -3 -27 14 -61 81 -24 46 -43 88 -42 92 2 4 -1 10 -6 13 -5 3 -56
96 -112 206 -57 110 -112 208 -122 218 -11 10 -17 22 -14 27 3 5 -4 29 -16 52
-27 53 -23 50 -43 42 -9 -4 -16 -17 -16 -34 0 -30 14 -47 25 -30 12 19 26 11
15 -9 -13 -26 -13 -31 5 -31 21 0 19 -16 -5 -40 -30 -30 -50 -26 -50 10 0 17
-4 30 -10 30 -5 0 -10 -9 -10 -21 0 -15 -5 -20 -22 -17 -16 2 -22 9 -20 22 2
10 -2 31 -9 47 -9 23 -9 32 1 44 9 11 9 15 1 15 -6 0 -16 11 -21 25 -5 14 -16
25 -25 25 -21 0 -19 34 5 55 11 10 16 23 13 29 -11 17 -13 76 -2 76 5 0 9 -6
9 -14 0 -7 9 -16 21 -19 15 -4 19 -11 14 -25 -4 -15 -1 -22 12 -25 17 -4 17
-5 0 -6 -14 -1 -16 -7 -11 -27 4 -17 2 -29 -7 -35 -11 -7 -11 -9 -1 -9 7 0 17
-10 22 -22 l9 -23 0 22 c1 15 9 25 26 29 28 7 34 24 9 24 -10 0 -14 5 -10 15
3 9 -12 51 -33 93 -44 86 -70 125 -71 103 0 -7 -6 -11 -14 -8 -8 3 -17 -1 -20
-9 -3 -9 -10 -12 -16 -9 -15 9 -12 35 4 35 8 0 16 14 19 33 3 25 -7 54 -44
129 -27 54 -46 104 -43 113 4 10 0 15 -10 15 -9 0 -20 10 -25 22 -7 19 0 29
56 71 50 39 61 52 52 63 -6 8 -8 22 -4 31 6 16 8 16 16 -4 4 -13 12 -23 17
-23 12 0 33 25 31 36 -4 23 3 33 20 29 11 -2 30 8 47 26 25 26 26 31 14 54 -7
14 -17 25 -22 25 -4 0 -8 9 -8 19 0 12 -9 21 -25 25 -27 7 -44 33 -56 83 -5
25 -3 33 7 33 8 0 11 -6 8 -15 -4 -8 -1 -15 5 -15 6 0 11 7 11 15 0 10 10 15
30 15 32 0 43 -26 15 -32 -12 -2 -8 -12 17 -42 32 -39 42 -72 28 -91 -4 -5 -1
-21 6 -35 14 -25 18 -21 15 12 -3 25 16 31 44 12 32 -21 32 -34 -4 -68 -16
-16 -35 -41 -41 -57 -11 -25 -14 -27 -27 -14 -32 33 -74 2 -55 -40 13 -29 52
-35 52 -7 0 14 2 15 10 2 13 -21 33 0 33 35 0 18 2 23 8 14 4 -7 5 -17 2 -22
-3 -5 4 -6 16 -2 11 3 21 2 21 -3 0 -6 27 18 60 51 34 36 60 55 60 47 0 -9
-22 -33 -49 -54 -32 -24 -48 -43 -44 -52 4 -10 -2 -14 -20 -14 -34 0 -51 -24
-45 -63 10 -60 -15 -80 -33 -27 -13 35 -20 37 -42 12 -15 -16 -14 -21 4 -62
13 -28 16 -46 10 -48 -6 -2 -11 -11 -11 -19 0 -12 3 -13 14 -4 11 9 18 1 37
-43 12 -30 26 -53 31 -50 4 3 8 -4 8 -15 0 -34 21 -70 37 -64 9 3 11 8 5 12
-6 3 -13 22 -17 42 -5 29 -3 38 11 43 10 4 21 2 24 -5 4 -6 11 -9 15 -7 15 6
24 -53 21 -133 -2 -44 -2 -79 0 -79 6 0 34 58 33 67 -5 30 2 45 19 39 11 -4 9
1 -7 14 -13 11 -22 22 -20 23 2 2 15 9 29 15 23 11 23 12 3 8 -20 -3 -28 6
-60 66 -20 39 -39 66 -41 60 -6 -19 -30 -2 -25 19 4 15 0 19 -18 19 -29 0 -56
16 -46 26 4 4 20 9 37 11 21 2 30 -2 30 -11 0 -8 5 -18 10 -21 15 -10 40 14
40 37 0 17 3 18 15 8 12 -10 16 -9 21 3 3 8 15 18 27 21 12 3 37 19 55 36 18
16 36 30 39 30 4 0 15 7 25 17 17 15 18 15 18 -5 0 -32 14 -34 54 -7 20 14 45
25 56 25 26 0 187 170 177 187 -3 5 1 17 9 28 14 19 15 19 41 -7 l26 -27 -59
-71 c-97 -117 -95 -108 -24 -108 40 0 63 4 68 14 4 7 38 45 75 83 37 38 67 76
67 84 0 7 -12 24 -26 38 -14 13 -35 36 -45 51 -18 24 -18 28 -3 43 15 15 19
14 46 -12 l30 -28 -7 65 c-5 41 -13 69 -24 77 -14 11 -14 12 4 13 16 0 17 2 5
10 -12 8 -12 10 2 15 22 9 30 47 18 81 -9 23 -9 25 4 15 12 -10 17 -7 30 16
25 49 6 57 -47 22 -26 -17 -47 -35 -47 -41 0 -5 -4 -7 -8 -4 -5 3 -26 -10 -47
-29 -21 -19 -40 -35 -44 -35 -3 0 -44 -31 -91 -69 -68 -56 -88 -67 -102 -60
-10 5 -18 6 -18 2 0 -4 -5 -1 -11 7 -8 11 -12 12 -16 3 -3 -8 -23 -13 -51 -13
l-45 0 23 -25 c17 -18 24 -38 25 -66 l1 -40 -58 62 c-32 35 -58 65 -58 69 0 3
68 59 150 124 132 104 166 138 137 137 -8 0 -54 -38 -206 -172 -47 -42 -94
-80 -103 -85 -20 -11 -110 -6 -103 6 6 10 -24 22 -36 14 -5 -3 -21 3 -37 14
-31 22 -106 57 -142 67 -14 4 -31 12 -38 18 -16 12 -75 134 -75 153 0 8 -5 14
-10 14 -5 0 -6 -7 -3 -16 4 -9 1 -22 -4 -30 -8 -9 -7 -21 5 -43 8 -17 20 -42
25 -57 9 -22 8 -25 -10 -22 -10 2 -18 -1 -17 -7 1 -5 7 -10 14 -10 17 0 22 -8
33 -45 5 -18 7 -30 3 -26 -4 3 -16 -2 -27 -11 -12 -10 -18 -14 -14 -9 4 5 -8
26 -27 47 -22 25 -32 44 -28 55 3 9 0 20 -8 25 -12 8 -12 10 0 18 10 6 4 12
-23 21 -19 6 -35 14 -34 18 4 12 -34 102 -43 102 -4 0 -28 -24 -54 -54 -37
-44 -45 -59 -39 -80 8 -32 -6 -34 -25 -3 -17 26 -21 56 -9 63 4 3 8 11 8 18 0
15 -66 40 -81 30 -7 -4 -17 0 -24 9 -6 9 -56 32 -111 52 -54 19 -112 42 -129
49 -32 15 -173 66 -181 66 -3 0 -4 -30 -2 -67z m656 -1092 c-2 -9 -15 -18 -29
-21 -28 -5 -81 -61 -78 -82 4 -32 -1 -40 -23 -35 -13 4 -26 0 -33 -10 -18 -25
-48 -9 -43 22 4 20 1 25 -14 25 -30 0 -18 32 16 41 17 5 42 23 57 41 16 18 31
29 35 26 3 -4 20 2 36 12 25 15 35 16 55 7 13 -6 22 -17 21 -26z"/>
<path d="M0 3684 l0 -325 33 38 c37 44 52 61 141 166 49 59 66 86 66 109 0 51
30 140 45 134 8 -3 16 0 19 7 4 7 4 -13 1 -43 l-4 -55 37 44 c20 25 44 54 52
64 15 18 17 18 48 -11 18 -17 32 -28 32 -25 0 3 7 0 15 -7 8 -7 13 -16 10 -20
-3 -4 15 -7 40 -7 30 0 45 5 45 13 0 7 -31 48 -69 90 -58 65 -75 77 -103 79
-50 3 -80 -5 -69 -19 13 -15 -22 -62 -38 -51 -7 4 -10 14 -6 22 4 13 3 14 -9
4 -12 -10 -16 -9 -24 6 -5 10 -7 23 -5 29 2 6 -15 16 -39 23 -24 6 -82 22
-130 35 l-88 25 0 -325z"/>
<path d="M4990 3912 c0 -5 12 -13 28 -20 l27 -12 -33 5 c-41 6 -53 -16 -26
-48 17 -19 17 -20 1 -8 -9 8 -21 10 -25 6 -4 -4 -1 -10 6 -12 6 -3 10 -9 7
-14 -4 -5 -1 -17 4 -26 8 -14 10 -15 11 -3 0 12 2 12 9 2 4 -8 24 -16 42 -18
29 -4 37 0 56 28 14 20 19 36 13 43 -5 6 -5 17 0 25 10 17 -34 55 -55 46 -8
-3 -17 -1 -20 4 -7 12 -45 13 -45 2z"/>
<path d="M1508 3450 c-26 -27 -50 -62 -54 -77 -3 -15 -13 -42 -21 -59 -16 -31
-13 -64 6 -64 16 0 104 81 124 112 25 41 46 108 40 124 -10 27 -47 14 -95 -36z"/>
<path d="M1854 3246 c-6 -17 12 -56 26 -56 6 0 10 -7 10 -15 0 -18 12 -19 28
-3 9 9 12 8 12 -4 0 -8 -7 -21 -15 -28 -13 -10 -19 -9 -37 6 -20 19 -21 19
-14 -3 7 -20 4 -23 -23 -23 -23 0 -29 4 -24 15 3 9 -2 22 -13 30 -11 7 -16 17
-12 21 10 9 -32 41 -54 41 -10 0 -18 -8 -18 -18 0 -10 -8 -19 -17 -21 -10 -2
-42 -29 -72 -60 l-54 -58 48 -97 c26 -54 59 -122 72 -152 18 -40 27 -51 33
-41 7 12 10 11 16 -4 4 -11 2 -21 -7 -26 -11 -7 -10 -10 4 -16 10 -3 17 -17
17 -31 0 -14 7 -37 15 -51 8 -15 44 -90 80 -167 63 -136 70 -148 108 -159 24
-8 21 -26 -5 -27 -17 -1 -19 -2 -6 -6 10 -2 31 2 48 10 16 9 40 14 53 13 22
-3 23 0 16 23 -4 14 -15 51 -23 82 -9 31 -32 76 -51 100 -19 24 -38 60 -41 79
-4 19 -14 44 -24 55 -29 33 -38 57 -45 126 -7 69 7 122 44 164 10 11 19 36 19
55 1 19 3 44 4 55 2 14 -4 21 -21 23 l-24 4 28 22 27 22 -22 52 c-29 67 -73
102 -86 68z"/>
<path d="M1240 3140 c0 -8 -11 -28 -24 -45 -22 -27 -27 -29 -45 -17 -27 16
-26 10 3 -47 13 -25 33 -65 44 -88 10 -23 22 -40 26 -36 3 3 6 -1 6 -10 0 -9
7 -17 15 -17 8 0 15 -6 15 -14 0 -9 12 -13 37 -12 35 1 38 -1 47 -35 5 -22 20
-43 37 -55 29 -19 37 -38 19 -49 -5 -3 -19 6 -32 20 -12 14 -26 25 -31 25 -5
0 -17 10 -26 22 -10 12 -23 18 -29 14 -19 -12 -14 -23 13 -30 27 -7 33 -24 11
-32 -10 -4 13 -63 91 -232 57 -125 114 -249 125 -276 l21 -48 49 6 c58 8 98
25 116 48 7 9 18 16 25 14 6 -1 9 -1 4 1 -4 3 -4 9 -1 15 4 7 -6 9 -29 6 -32
-3 -37 0 -50 28 -9 18 -13 41 -10 53 4 15 1 21 -11 21 -11 0 -75 120 -207 383
-105 210 -195 386 -200 392 -6 5 -9 3 -9 -5z"/>
<path d="M4966 2681 c5 -40 3 -49 -12 -55 -10 -4 -21 -2 -25 5 -8 13 -29 -19
-29 -44 0 -21 27 -29 52 -16 11 6 21 9 23 7 1 -2 6 -36 10 -76 6 -66 6 -72
-11 -70 -55 4 -72 -2 -77 -29 -3 -16 0 -35 6 -43 7 -8 -21 12 -60 45 -55 45
-70 62 -62 71 6 8 9 18 7 24 -6 18 -144 -142 -150 -175 -5 -26 0 -35 48 -78
30 -27 54 -56 54 -63 0 -8 6 -14 14 -14 7 0 61 -46 120 -101 75 -72 104 -105
97 -112 -14 -14 -14 -84 0 -93 6 -3 24 3 40 15 15 11 32 21 37 21 11 0 58 -51
65 -70 3 -8 6 165 6 384 l1 399 -41 -47 c-22 -25 -45 -44 -50 -40 -12 7 -12
114 1 114 6 0 10 -7 10 -15 0 -19 14 -19 30 0 9 11 6 21 -17 50 -15 19 -36 35
-45 35 -10 0 -18 5 -18 10 0 6 -7 10 -15 10 -13 0 -15 -9 -9 -49z"/>
<path d="M600 2623 c-13 -21 -23 -46 -22 -55 0 -9 -7 -20 -17 -23 -10 -3 -35
-30 -56 -61 -21 -30 -51 -65 -66 -79 -16 -13 -29 -31 -29 -41 0 -9 -24 -48
-53 -88 -30 -39 -60 -82 -67 -96 -12 -23 -13 -23 -20 -5 -12 32 -46 58 -68 51
-54 -17 -65 -106 -17 -128 20 -9 22 -15 15 -34 -9 -22 -56 -91 -129 -190 -17
-23 -31 -46 -31 -53 0 -6 44 -73 97 -149 53 -75 119 -170 147 -209 27 -40 52
-73 55 -73 3 0 20 11 36 24 l30 24 -23 31 -23 31 40 0 c22 0 41 -5 43 -12 4
-12 13 -5 127 96 57 50 78 72 112 115 11 13 22 21 25 18 4 -3 26 10 50 30 l44
35 1 -38 c1 -22 0 -43 -1 -49 -1 -5 2 -7 6 -3 3 4 19 -19 35 -52 26 -55 37
-65 63 -61 18 3 46 -32 40 -51 -4 -13 0 -18 13 -18 9 0 40 -25 68 -56 44 -50
52 -55 63 -41 11 13 8 22 -22 55 -20 22 -36 42 -36 45 0 2 18 5 39 5 36 1 44
-5 91 -59 l51 -59 -47 -55 c-36 -41 -55 -55 -74 -55 -40 0 -42 9 -12 48 15 20
22 33 15 29 -6 -4 -16 -1 -20 8 -7 12 -16 6 -47 -30 -27 -33 -41 -43 -50 -36
-9 7 -17 4 -30 -10 -20 -24 -49 -22 -54 4 -4 21 27 35 38 16 7 -10 11 -7 18
12 6 14 17 31 26 38 24 20 20 33 -29 81 -31 31 -43 50 -39 62 4 13 0 18 -14
18 -11 0 -22 -3 -25 -7 -2 -5 -3 -3 -1 3 2 11 -46 64 -59 64 -3 0 -5 -18 -4
-40 1 -35 4 -40 24 -40 13 0 23 -4 23 -9 0 -4 18 -29 40 -54 22 -25 40 -49 40
-54 0 -13 -38 -43 -56 -43 -10 0 -14 -6 -11 -15 9 -23 -11 -28 -23 -5 -8 16
-8 21 2 25 23 9 18 38 -12 75 l-28 34 -1 -149 c-1 -82 -3 -151 -5 -153 -2 -2
-21 6 -42 17 -45 24 -92 27 -120 7 -26 -19 -17 -25 57 -36 121 -19 109 -1 108
-155 l0 -135 -35 0 c-23 0 -34 4 -32 12 4 11 -59 75 -66 67 -1 -2 -10 -30 -19
-62 -15 -56 -15 -59 5 -79 15 -15 22 -17 28 -8 5 9 12 6 22 -9 10 -14 21 -19
32 -15 9 3 16 1 16 -5 0 -11 90 -8 109 3 5 4 12 2 15 -3 3 -5 -2 -12 -12 -16
-15 -6 -14 -8 7 -19 15 -9 20 -16 12 -20 -6 -4 -9 -11 -6 -16 10 -17 -22 -17
-55 0 -33 17 -35 17 -72 -2 -39 -21 -50 -38 -23 -38 8 0 15 -4 15 -10 0 -5 6
-10 13 -10 7 0 37 -12 66 -26 37 -19 51 -31 46 -42 -4 -12 -2 -12 8 -4 8 7 16
9 20 6 3 -3 16 1 29 9 12 8 36 18 51 21 27 7 80 57 104 100 14 25 0 48 -24 39
-11 -4 -14 -2 -9 5 9 15 46 16 46 1 0 -6 17 11 38 38 l39 48 -45 17 c-33 13
-50 14 -66 7 -19 -9 -18 -8 3 10 28 25 36 25 91 6 48 -17 41 -19 135 53 108
84 202 146 237 156 16 5 16 8 -5 30 -13 13 -45 65 -72 114 -31 56 -54 87 -60
82 -11 -9 -85 -19 -85 -11 0 3 14 20 31 37 20 20 29 39 26 48 -10 25 -20 19
-71 -40 -27 -30 -51 -53 -54 -50 -3 3 -20 -4 -39 -15 -52 -32 -43 1 19 72 l51
59 -27 29 c-18 18 -34 27 -44 24 -11 -5 -14 -2 -9 9 3 9 -1 25 -9 37 -14 20
-14 21 18 22 51 2 58 0 85 -29 20 -21 16 -11 -16 51 -23 42 -37 77 -31 77 5 0
10 5 10 11 0 15 -28 41 -39 35 -5 -3 -34 40 -66 97 -31 56 -95 170 -142 252
-47 83 -99 175 -116 205 -17 30 -48 84 -68 120 -21 36 -59 104 -86 153 -33 60
-55 89 -70 93 -14 4 -23 14 -23 26 0 13 4 17 13 12 7 -5 7 -1 -3 12 -8 10 -15
20 -16 22 -1 2 -12 -14 -24 -35z m55 -763 c5 -7 -102 -45 -190 -66 -11 -3 -29
-9 -40 -15 -50 -23 -150 -48 -159 -39 -12 12 17 55 46 71 12 7 54 13 93 14 38
1 89 9 112 18 23 8 50 13 61 10 11 -3 29 0 39 6 23 13 30 13 38 1z"/>
<path d="M2023 2283 c-18 -2 -33 -8 -33 -14 0 -5 -7 -9 -15 -9 -11 0 -8 -15
15 -65 16 -36 27 -72 24 -80 -4 -10 0 -15 12 -15 11 0 15 -3 8 -8 -13 -9 -44
-54 -44 -64 0 -5 9 -8 20 -8 11 0 20 4 20 9 0 5 7 12 15 15 10 4 19 -2 24 -17
5 -13 28 -63 50 -112 30 -64 38 -91 31 -100 -12 -15 3 -30 19 -21 5 4 11 1 13
-5 2 -7 29 18 60 56 l56 67 -15 37 c-8 20 -23 45 -32 56 -29 33 -81 118 -81
131 0 7 -16 44 -36 83 -38 75 -35 73 -111 64z"/>
<path d="M4735 1948 c-11 -6 -30 -20 -42 -31 -16 -14 -23 -16 -23 -7 0 10 -3
11 -11 3 -6 -6 -7 -22 -3 -38 8 -32 61 -59 98 -49 25 6 79 58 89 86 6 17 -15
43 -26 31 -4 -3 -7 -1 -7 5 0 15 -48 15 -75 0z"/>
<path d="M477 1479 c-16 -9 -16 -12 -2 -32 21 -29 19 -32 -15 -35 -16 -1 -30
2 -30 8 0 17 -20 11 -55 -16 l-34 -26 48 -66 c66 -92 66 -91 45 -107 -17 -12
-14 -14 34 -21 34 -4 49 -10 40 -15 -10 -6 -10 -11 -1 -20 14 -14 47 -4 37 12
-4 8 -3 9 4 5 7 -4 16 3 21 18 7 17 15 23 29 19 18 -4 20 2 25 64 3 37 8 78
12 91 6 17 3 22 -11 22 -10 0 -43 25 -74 54 -45 45 -58 53 -73 45z"/>
<path d="M0 1176 l0 -238 80 72 c74 67 93 87 96 100 0 3 4 13 8 22 6 13 -13
49 -74 135 -46 65 -89 125 -96 133 -12 12 -14 -22 -14 -224z"/>
<path d="M490 905 c0 -40 -45 -76 -91 -73 -21 1 -45 -5 -55 -12 -9 -8 -22 -15
-28 -15 -20 0 -76 -30 -76 -40 0 -5 20 -9 44 -9 77 3 125 -56 105 -129 l-10
-36 -37 16 c-20 10 -43 21 -49 26 -14 10 -7 30 8 22 5 -4 14 -3 19 0 6 4 -10
22 -37 41 -35 25 -49 30 -53 20 -3 -7 -19 -25 -35 -39 l-30 -25 -30 24 c-27
21 -30 22 -36 6 -4 -10 1 -26 15 -40 l21 -24 -44 -39 c-42 -38 -71 -50 -71
-29 0 6 -4 10 -10 10 -5 0 -10 -9 -10 -20 0 -11 5 -20 11 -20 8 0 8 -4 0 -14
-6 -7 -10 -31 -9 -52 3 -32 7 -40 27 -42 22 -3 23 -7 19 -58 -3 -37 -11 -61
-26 -77 -23 -25 -29 -76 -11 -94 8 -8 8 -13 0 -17 -6 -4 -11 -40 -11 -87 l0
-79 58 1 c31 1 47 4 34 6 -12 2 -26 12 -32 22 -7 15 -3 20 25 28 29 9 46 6
117 -19 91 -33 250 -52 216 -26 -16 12 -14 15 23 33 39 18 43 18 87 2 28 -9
48 -12 50 -7 2 6 8 10 14 10 6 0 7 -7 4 -15 -4 -11 3 -19 20 -25 33 -13 221
-13 229 0 3 6 1 10 -4 10 -6 0 -11 7 -11 15 0 8 -8 15 -17 15 -17 1 -17 1 0
14 18 14 23 61 7 71 -5 3 -10 13 -10 21 0 8 4 13 8 10 11 -7 41 55 58 119 13
49 13 50 -14 73 -66 55 -70 57 -96 33 -12 -11 -27 -21 -33 -21 -6 0 -13 -6
-15 -12 -3 -9 -9 -8 -22 5 -10 9 -23 17 -31 17 -11 0 -22 19 -39 72 -3 10 -1
28 4 40 8 21 9 21 9 4 1 -15 4 -17 12 -9 17 17 3 43 -23 43 -20 1 -21 2 -6 10
11 7 26 7 44 0 15 -6 33 -9 40 -6 8 3 16 1 19 -4 6 -10 56 -3 69 10 11 11 -1
30 -21 30 -13 0 -13 3 -3 15 10 12 10 15 -3 15 -9 0 -18 -4 -22 -9 -3 -6 -28
1 -57 14 l-52 24 -43 -24 -43 -24 -35 33 c-26 25 -35 42 -35 66 0 36 42 100
65 100 9 0 16 20 20 66 8 73 2 84 -47 84 -23 0 -28 -4 -28 -25z m46 -446 c15
-13 15 -119 -1 -113 -12 4 -46 -21 -44 -32 1 -5 -3 -20 -10 -34 l-11 -25 4 28
c2 20 0 25 -7 18 -16 -16 -27 -13 -27 7 0 12 -3 13 -8 5 -11 -17 -62 63 -62
97 0 32 10 47 40 59 29 12 107 6 126 -10z"/>
</g>
</svg>
